<!DOCTYPE svg PUBLIC "-//W3C//DTD SVG 20010904//EN" "http://www.w3.org/TR/2001/REC-SVG-20010904/DTD/svg10.dtd">
<svg version="1.0" xmlns="http://www.w3.org/2000/svg" width="1345px" height="505px" viewBox="0 0 13450 5050" preserveAspectRatio="xMidYMid meet">
<g id="layer101" fill="#247ba0" stroke="none">
 <path d="M0 2525 l0 -2525 6725 0 6725 0 0 2525 0 2525 -6725 0 -6725 0 0 -2525z"/>
 </g>
<g id="layer102" fill="#cc4c2f" stroke="none">
 <path d="M0 2525 l0 -2525 6725 0 6725 0 0 2053 0 2052 -472 473 -473 472 -6252 0 -6253 0 0 -2525z"/>
 </g>
<g id="layer103" fill="#f95c39" stroke="none">
 <path d="M2840 2525 l2525 -2525 4042 0 4043 0 0 2053 0 2052 -472 473 -473 472 -6095 0 -6095 0 2525 -2525z"/>
 </g>
<g id="layer104" fill="#f16445" stroke="none">
 <path d="M10830 5043 c0 -10 2603 -2613 2612 -2613 5 0 8 377 8 838 l0 837 -473 473 -472 472 -838 0 c-460 0 -837 -3 -837 -7z"/>
 <path d="M11185 4590 c3 -5 8 -10 11 -10 3 0 2 5 -1 10 -3 6 -8 10 -11 10 -3 0 -2 -4 1 -10z"/>
 </g>
<g id="layer105" fill="#ffffff" stroke="none">
 <path d="M10830 5043 c0 -10 2603 -2613 2612 -2613 5 0 8 377 8 838 l0 837 -473 473 -472 472 -838 0 c-460 0 -837 -3 -837 -7z"/>
 </g>

</svg>